<?xml version="1.0" ?><svg data-name="Layer 1" id="Layer_1" viewBox="0 0 512 512" xmlns="http://www.w3.org/2000/svg"><path d="M428.65,103.09h0a109.56,109.56,0,0,0-154.71,0L256,121l-18-18A109.4,109.4,0,0,0,83.35,257.73l20.87,20.87a4.85,4.85,0,0,0,.55.65l17,17-2.47,2.48A27.34,27.34,0,0,0,143.61,345a27.32,27.32,0,0,0,31.85,31.84,27.34,27.34,0,0,0,31.83,31.86,27.26,27.26,0,0,0,7.56,24.3h0a27.37,27.37,0,0,0,38.67,0l41.59-41.56c.41-.41.81-.85,1.19-1.29L428.65,257.8A109.55,109.55,0,0,0,428.65,103.09ZM112.36,272.86a5,5,0,0,0-.54-.66L90.35,250.73A99.5,99.5,0,0,1,231.07,110l18,18L184.51,192.5a5,5,0,0,0-1.44,3.5,4.88,4.88,0,0,0,1.46,3.5,62.09,62.09,0,0,0,87.66,0l20.75-20.76L393.32,279.12,303,369.47a27.28,27.28,0,0,0-32.18-24.29A27.3,27.3,0,0,0,239,313.33a27.32,27.32,0,0,0-31.85-31.85,27.35,27.35,0,0,0-46.23-24.3l-32.11,32.09Zm13.94,57.58a17.48,17.48,0,0,1,0-24.7l41.58-41.56a17.46,17.46,0,1,1,24.7,24.69L151,330.44A17.46,17.46,0,0,1,126.3,330.44Zm31.85,31.84a17.5,17.5,0,0,1,0-24.7L199.71,296a17.47,17.47,0,0,1,24.7,24.7l-41.54,41.56A17.48,17.48,0,0,1,158.15,362.28ZM190,394.14a17.47,17.47,0,0,1,0-24.7l41.57-41.57a17.47,17.47,0,1,1,24.69,24.71L214.7,394.14A17.47,17.47,0,0,1,190,394.14ZM221.85,426h0a17.44,17.44,0,0,1,0-24.7l41.56-41.56a17.47,17.47,0,0,1,24.72,24.7L246.54,426A17.45,17.45,0,0,1,221.85,426Zm199.8-175.19-21.33,21.33L296.44,168.25a5,5,0,0,0-7,0L265.2,192.5a52.2,52.2,0,0,1-70,3.34l64.37-64.36,21.39-21.39a99.5,99.5,0,0,1,140.72,140.7Z"/></svg>